# Blender 4.3.0
# www.blender.org
mtllib DoctorSign.mtl
o Cube.001
v 0.030315 0.060178 0.040000
v 0.023543 0.098585 0.040000
v 0.023543 0.098585 0.100000
v 0.030315 0.060178 0.100000
v 0.023543 0.098585 0.040000
v 0.031421 0.099974 0.040000
v 0.031421 0.099974 0.100000
v 0.023543 0.098585 0.100000
v 0.031421 0.099974 0.040000
v 0.038194 0.061567 0.040000
v 0.038194 0.061567 0.100000
v 0.031421 0.099974 0.100000
v 0.038194 0.061567 0.040000
v 0.030315 0.060178 0.040000
v 0.030315 0.060178 0.100000
v 0.038194 0.061567 0.100000
v 0.023543 0.098585 0.040000
v 0.030315 0.060178 0.040000
v 0.038194 0.061567 0.040000
v 0.031421 0.099974 0.040000
v 0.031421 0.099974 0.100000
v 0.038194 0.061567 0.100000
v 0.030315 0.060178 0.100000
v 0.023543 0.098585 0.100000
vn -0.9848 -0.1736 -0.0000
vn -0.1736 0.9848 -0.0000
vn 0.9848 0.1736 -0.0000
vn 0.1736 -0.9848 -0.0000
vn -0.0000 -0.0000 -1.0000
vn -0.0000 -0.0000 1.0000
vt 0.448566 0.286847
vt 0.448566 0.713153
vt 0.022261 0.713153
vt 0.022261 0.286847
vt 0.755993 0.500000
vt 0.969145 0.399470
vt 0.969145 0.600530
vt 0.542840 0.600530
vt 0.542840 0.399470
vt 0.969145 0.801590
vt 0.542840 0.801590
vt 0.969145 0.198410
vt 0.542840 0.198410
s 1
g Cube.001_매테리얼.001
usemtl 매테리얼.001
f 3/1/1 2/2/1 1/3/1
f 4/4/1 3/1/1 1/3/1
f 7/5/2 6/5/2 5/5/2
f 8/5/2 7/5/2 5/5/2
f 11/6/3 10/7/3 9/8/3
f 12/9/3 11/6/3 9/8/3
f 15/5/4 14/5/4 13/5/4
f 16/5/4 15/5/4 13/5/4
f 19/7/5 18/10/5 17/11/5
f 20/8/5 19/7/5 17/11/5
f 23/12/6 22/6/6 21/9/6
f 24/13/6 23/12/6 21/9/6
