# Blender 4.3.0
# www.blender.org
mtllib Prop.mtl
o Cube.011_#30701
v 0.020000 0.040000 0.040000
v 0.040000 0.020000 0.040000
v 0.040000 -0.020000 0.040000
v 0.020000 -0.040000 0.040000
v -0.020000 0.040000 0.040000
v -0.020000 -0.040000 0.040000
v -0.040000 0.020000 0.040000
v -0.040000 -0.020000 0.040000
v 0.040000 -0.060000 -0.050000
v -0.040000 -0.060000 -0.160000
v -0.040000 -0.060000 -0.050000
v 0.040000 -0.060000 -0.160000
v 0.060000 -0.040000 -0.160000
v 0.060000 -0.040000 -0.050000
v 0.060000 0.040000 -0.050000
v 0.060000 0.040000 -0.160000
v 0.040000 0.060000 -0.160000
v 0.040000 0.060000 -0.050000
v -0.040000 0.060000 -0.050000
v -0.040000 0.060000 -0.160000
v -0.060000 0.040000 -0.160000
v -0.060000 0.040000 -0.050000
v -0.060000 -0.040000 -0.050000
v -0.060000 -0.040000 -0.160000
v -0.040000 -0.060000 -0.160000
v -0.040000 -0.060000 -0.050000
v 0.040000 0.020000 -0.040000
v 0.040000 -0.020000 0.040000
v 0.040000 0.020000 0.040000
v 0.040000 -0.020000 -0.040000
v 0.020000 -0.040000 0.040000
v 0.020000 -0.040000 -0.040000
v -0.020000 -0.040000 0.040000
v -0.020000 -0.040000 -0.040000
v -0.040000 -0.020000 0.040000
v -0.040000 -0.020000 -0.040000
v -0.040000 0.020000 0.040000
v -0.040000 0.020000 -0.040000
v -0.020000 0.040000 0.040000
v -0.020000 0.040000 -0.040000
v 0.020000 0.040000 0.040000
v 0.020000 0.040000 -0.040000
v 0.040000 0.020000 0.040000
v 0.040000 0.020000 -0.040000
v -0.040000 0.020000 -0.040000
v -0.060000 0.040000 -0.050000
v -0.040000 0.060000 -0.050000
v -0.060000 -0.040000 -0.050000
v -0.020000 0.040000 -0.040000
v -0.040000 -0.020000 -0.040000
v 0.020000 0.040000 -0.040000
v 0.040000 0.060000 -0.050000
v -0.020000 -0.040000 -0.040000
v -0.040000 -0.060000 -0.050000
v 0.060000 0.040000 -0.050000
v 0.040000 0.020000 -0.040000
v 0.040000 -0.060000 -0.050000
v 0.020000 -0.040000 -0.040000
v 0.040000 -0.020000 -0.040000
v 0.060000 -0.040000 -0.050000
v 0.047500 0.010607 -0.000000
v 0.047500 -0.000000 -0.017678
v 0.047500 -0.000000 -0.010607
v 0.047500 0.017678 -0.000000
v 0.047500 -0.017678 0.000000
v 0.047500 -0.000000 0.010607
v 0.047500 -0.010607 0.000000
v 0.047500 -0.000000 0.017678
v -0.047500 0.010607 -0.000000
v -0.047500 0.017678 -0.000000
v -0.047500 0.000000 0.017678
v -0.047500 0.000000 0.010607
v -0.047500 0.000000 -0.010607
v -0.047500 -0.017678 0.000000
v -0.047500 0.000000 -0.017678
v -0.047500 -0.010607 0.000000
v -0.010607 0.047500 -0.000000
v 0.000000 0.047500 -0.017678
v 0.000000 0.047500 -0.010607
v -0.017678 0.047500 -0.000000
v 0.017678 0.047500 -0.000000
v 0.000000 0.047500 0.010607
v 0.010607 0.047500 -0.000000
v 0.000000 0.047500 0.017678
v -0.010607 -0.047500 0.000000
v -0.017678 -0.047500 0.000000
v -0.000000 -0.047500 0.017678
v -0.000000 -0.047500 0.010607
v -0.000000 -0.047500 -0.010607
v 0.017678 -0.047500 0.000000
v -0.000000 -0.047500 -0.017678
v 0.010607 -0.047500 0.000000
v -0.047500 0.000000 -0.017678
v 0.047500 -0.000000 -0.017678
v 0.047500 0.017678 -0.000000
v -0.047500 0.017678 -0.000000
v -0.047500 -0.017678 0.000000
v 0.047500 -0.000000 0.017678
v 0.047500 -0.017678 0.000000
v -0.047500 0.000000 0.017678
v -0.000000 -0.047500 -0.017678
v 0.000000 0.047500 -0.017678
v -0.017678 0.047500 -0.000000
v -0.017678 -0.047500 0.000000
v 0.017678 -0.047500 0.000000
v 0.000000 0.047500 0.017678
v 0.017678 0.047500 -0.000000
v -0.000000 -0.047500 0.017678
v -0.047500 0.010607 -0.000000
v -0.054500 0.000000 0.000000
v -0.047500 0.000000 -0.010607
v -0.047500 0.000000 0.010607
v -0.047500 -0.010607 0.000000
v 0.047500 0.010607 -0.000000
v 0.054500 -0.000000 0.000000
v 0.047500 -0.000000 0.010607
v 0.047500 -0.000000 -0.010607
v 0.047500 -0.010607 0.000000
v -0.010607 -0.047500 0.000000
v -0.000000 -0.054500 0.000000
v -0.000000 -0.047500 -0.010607
v -0.000000 -0.047500 0.010607
v 0.010607 -0.047500 0.000000
v -0.010607 0.047500 -0.000000
v 0.000000 0.054500 -0.000000
v 0.000000 0.047500 0.010607
v 0.000000 0.047500 -0.010607
v 0.010607 0.047500 -0.000000
vn -0.0000 -0.0000 1.0000
vn -0.3823 -0.9241 -0.0000
vn 0.3827 -0.9239 -0.0000
vn 0.9239 -0.3827 -0.0000
vn 0.9239 0.3827 -0.0000
vn 0.3827 0.9239 -0.0000
vn -0.3827 0.9239 -0.0000
vn -0.9239 0.3827 -0.0000
vn -0.9239 -0.3827 -0.0000
vn -0.3831 -0.9237 -0.0000
vn 0.9241 0.3823 -0.0000
vn -0.3827 -0.9239 -0.0000
vn 0.9237 0.3831 -0.0000
vn -0.1553 0.3131 0.9369
vn -0.3131 0.1553 0.9369
vn -0.3659 0.0968 0.9256
vn -0.3131 -0.1553 0.9369
vn -0.0968 0.3659 0.9256
vn -0.3659 -0.0968 0.9256
vn 0.0968 0.3659 0.9256
vn 0.1553 0.3131 0.9369
vn -0.0968 -0.3659 0.9256
vn -0.1553 -0.3131 0.9369
vn 0.3131 0.1553 0.9369
vn 0.3659 0.0968 0.9256
vn 0.1553 -0.3131 0.9369
vn 0.0968 -0.3659 0.9256
vn 0.3659 -0.0968 0.9256
vn 0.3131 -0.1553 0.9369
vn 1.0000 -0.0000 -0.0000
vn -1.0000 -0.0000 -0.0000
vn -0.0000 1.0000 -0.0000
vn -0.0000 -1.0000 -0.0000
vn -0.0000 -0.0000 -1.0000
vn -0.8346 -0.0000 -0.5508
vn -0.8346 0.5508 -0.0000
vn -0.8346 -0.0000 0.5508
vn -0.8346 -0.5508 -0.0000
vn 0.8346 -0.0000 0.5508
vn 0.8346 0.5508 -0.0000
vn 0.8346 -0.0000 -0.5508
vn 0.8346 -0.5508 -0.0000
vn -0.0000 -0.8346 -0.5508
vn -0.5508 -0.8346 -0.0000
vn -0.0000 -0.8346 0.5508
vn 0.5508 -0.8346 -0.0000
vn -0.0000 0.8346 0.5508
vn -0.5508 0.8346 -0.0000
vn -0.0000 0.8346 -0.5508
vn 0.5508 0.8346 -0.0000
vt 0.619691 0.739382
vt 0.380309 0.739382
vt 0.260618 0.619691
vt 0.739382 0.619691
vt 0.260618 0.380309
vt 0.739382 0.380309
vt 0.380309 0.260618
vt 0.619691 0.260618
vt -0.906578 0.603335
vt -0.906578 0.074225
vt -0.521771 0.603335
vt -0.521771 0.074225
vt -0.385721 0.074225
vt -0.385721 0.603335
vt -0.000914 0.603335
vt -0.000914 0.074225
vt 0.135136 0.074225
vt 0.135136 0.603335
vt 0.519944 0.603335
vt 0.519944 0.074225
vt 0.655994 0.074225
vt 0.655994 0.603335
vt 1.040801 0.603335
vt 1.040801 0.074225
vt 1.176851 0.074225
vt 1.176851 0.603335
vt 0.887153 0.801331
vt 0.672633 0.801331
vt 0.887153 0.372291
vt 0.672633 0.372291
vt 0.520944 0.801331
vt 0.520944 0.372291
vt 0.306424 0.801331
vt 0.306423 0.372291
vt 0.154735 0.801331
vt 0.154735 0.372291
vt -0.059786 0.801331
vt -0.059785 0.372291
vt -0.211474 0.801331
vt -0.211474 0.372291
vt -0.425994 0.801331
vt -0.425994 0.372291
vt -0.577683 0.801331
vt -0.577683 0.372291
vt 0.314569 0.781181
vt 0.218625 0.685989
vt 0.320559 0.590911
vt 0.218630 0.315073
vt 0.409876 0.680608
vt 0.319414 0.410771
vt 0.589265 0.679118
vt 0.684713 0.781181
vt 0.409581 0.320790
vt 0.314298 0.218819
vt 0.780434 0.685047
vt 0.679755 0.589525
vt 0.684115 0.219236
vt 0.588794 0.319643
vt 0.678083 0.409603
vt 0.779891 0.314394
vt 0.500000 0.600000
s 1
f 3/1/1 2/2/1 1/3/1
f 1/3/1 4/4/1 3/1/1
f 1/3/1 5/5/1 4/4/1
f 5/5/1 6/6/1 4/4/1
f 5/5/1 7/7/1 6/6/1
f 7/7/1 8/8/1 6/6/1
f 11/9/2 10/10/2 9/11/3
f 10/10/2 12/12/3 9/11/3
f 12/12/3 13/13/4 9/11/3
f 13/13/4 14/14/4 9/11/3
f 14/14/4 13/13/4 15/15/5
f 13/13/4 16/16/5 15/15/5
f 15/15/5 16/16/5 17/17/6
f 18/18/6 15/15/5 17/17/6
f 18/18/6 17/17/6 19/19/7
f 17/17/6 20/20/7 19/19/7
f 20/20/7 21/21/8 19/19/7
f 21/21/8 22/22/8 19/19/7
f 22/22/8 21/21/8 23/23/9
f 21/21/8 24/24/9 23/23/9
f 23/23/9 24/24/9 25/25/10
f 26/26/10 23/23/9 25/25/10
f 29/27/11 28/28/4 27/29/11
f 28/28/4 30/30/4 27/29/11
f 30/30/4 28/28/4 31/31/3
f 32/32/3 30/30/4 31/31/3
f 31/31/3 33/33/12 32/32/3
f 33/33/12 34/34/12 32/32/3
f 33/33/12 35/35/9 34/34/12
f 35/35/9 36/36/9 34/34/12
f 35/35/9 37/37/8 36/36/9
f 37/37/8 38/38/8 36/36/9
f 38/38/8 37/37/8 39/39/7
f 40/40/7 38/38/8 39/39/7
f 39/39/7 41/41/6 40/40/7
f 41/41/6 42/42/6 40/40/7
f 42/42/6 41/41/6 43/43/13
f 44/44/13 42/42/6 43/43/13
f 47/45/14 46/46/15 45/47/16
f 45/47/16 46/46/15 48/48/17
f 49/49/18 47/45/14 45/47/16
f 50/50/19 45/47/16 48/48/17
f 49/49/18 51/51/20 47/45/14
f 51/51/20 52/52/21 47/45/14
f 50/50/19 48/48/17 53/53/22
f 48/48/17 54/54/23 53/53/22
f 55/55/24 52/52/21 51/51/20
f 56/56/25 55/55/24 51/51/20
f 53/53/22 54/54/23 57/57/26
f 58/58/27 53/53/22 57/57/26
f 56/56/25 59/59/28 55/55/24
f 58/58/27 57/57/26 59/59/28
f 59/59/28 60/60/29 55/55/24
f 57/57/26 60/60/29 59/59/28
f 63/61/30 62/61/30 61/61/30
f 62/61/30 64/61/30 61/61/30
f 65/61/30 62/61/30 63/61/30
f 61/61/30 64/61/30 66/61/30
f 67/61/30 65/61/30 63/61/30
f 64/61/30 68/61/30 66/61/30
f 68/61/30 65/61/30 67/61/30
f 66/61/30 68/61/30 67/61/30
f 71/61/31 70/61/31 69/61/31
f 72/61/31 71/61/31 69/61/31
f 69/61/31 70/61/31 73/61/31
f 74/61/31 71/61/31 72/61/31
f 70/61/31 75/61/31 73/61/31
f 76/61/31 74/61/31 72/61/31
f 73/61/31 75/61/31 76/61/31
f 75/61/31 74/61/31 76/61/31
f 79/61/32 78/61/32 77/61/32
f 78/61/32 80/61/32 77/61/32
f 81/61/32 78/61/32 79/61/32
f 77/61/32 80/61/32 82/61/32
f 83/61/32 81/61/32 79/61/32
f 80/61/32 84/61/32 82/61/32
f 84/61/32 81/61/32 83/61/32
f 82/61/32 84/61/32 83/61/32
f 87/61/33 86/61/33 85/61/33
f 88/61/33 87/61/33 85/61/33
f 85/61/33 86/61/33 89/61/33
f 90/61/33 87/61/33 88/61/33
f 86/61/33 91/61/33 89/61/33
f 92/61/33 90/61/33 88/61/33
f 89/61/33 91/61/33 92/61/33
f 91/61/33 90/61/33 92/61/33
f 95/61/32 94/61/34 93/61/34
f 96/61/32 95/61/32 93/61/34
f 93/61/34 94/61/34 97/61/33
f 98/61/1 95/61/32 96/61/32
f 94/61/34 99/61/33 97/61/33
f 100/61/1 98/61/1 96/61/32
f 100/61/1 97/61/33 99/61/33
f 98/61/1 100/61/1 99/61/33
f 103/61/31 102/61/34 101/61/34
f 104/61/31 103/61/31 101/61/34
f 101/61/34 102/61/34 105/61/30
f 106/61/1 103/61/31 104/61/31
f 102/61/34 107/61/30 105/61/30
f 108/61/1 106/61/1 104/61/31
f 108/61/1 105/61/30 107/61/30
f 106/61/1 108/61/1 107/61/30
f 111/61/35 110/61/31 109/61/36
f 109/61/36 110/61/31 112/61/37
f 113/61/38 110/61/31 111/61/35
f 112/61/37 110/61/31 113/61/38
f 116/61/39 115/61/30 114/61/40
f 114/61/40 115/61/30 117/61/41
f 118/61/42 115/61/30 116/61/39
f 117/61/41 115/61/30 118/61/42
f 121/61/43 120/61/33 119/61/44
f 119/61/44 120/61/33 122/61/45
f 123/61/46 120/61/33 121/61/43
f 122/61/45 120/61/33 123/61/46
f 126/61/47 125/61/32 124/61/48
f 124/61/48 125/61/32 127/61/49
f 128/61/50 125/61/32 126/61/47
f 127/61/49 125/61/32 128/61/50
